<svg xmlns="http://www.w3.org/2000/svg" viewBox="0 0 82 82"><path d="M52 44.6v-7.2a3.4 3.4 0 00-3.4-3.4H33.4a3.4 3.4 0 00-3.4 3.4v7.2a3.4 3.4 0 003.4 3.4h15.2a3.4 3.4 0 003.4-3.4zM48.6 32a5.4 5.4 0 015.4 5.4v7.2a5.4 5.4 0 01-5.4 5.4H33.4a5.4 5.4 0 01-5.4-5.4v-7.2a5.4 5.4 0 015.4-5.4zM70 12a40.9 40.9 0 0112 29 .9.9 0 01-1 1h-6a1 1 0 010-2h5a39.2 39.2 0 00-10.7-25.9l-3.6 3.6a.9.9 0 01-.7.3.9.9 0 01-1-1 .9.9 0 01.3-.7l3.6-3.6A39.2 39.2 0 0042 2v5a1 1 0 01-2 0V2a39.2 39.2 0 00-25.9 10.7l3.6 3.6a1 1 0 01-1.4 1.4l-3.6-3.6A39.2 39.2 0 002 40h5a1 1 0 010 2H2a39.2 39.2 0 0010.7 25.9l3.6-3.6a1 1 0 011.4 1.4l-3.6 3.6A39.2 39.2 0 0040 80v-5a1 1 0 012 0v6a.9.9 0 01-1 1 41 41 0 1129-70z" fill="#fff" fill-rule="evenodd"></path></svg>